<?xml version="1.0" standalone="no"?>
<!DOCTYPE svg PUBLIC "-//W3C//DTD SVG 20010904//EN"
 "http://www.w3.org/TR/2001/REC-SVG-20010904/DTD/svg10.dtd">
<svg version="1.0" xmlns="http://www.w3.org/2000/svg"
 width="250.000000pt" height="202.000000pt" viewBox="0 0 250.000000 202.000000"
 preserveAspectRatio="xMidYMid meet">

<g transform="translate(0.000000,202.000000) scale(0.100000,-0.100000)"
fill="#000000" stroke="none">
<path fill="#487BC8" d="M582 1496 c-222 -54 -382 -257 -382 -486 0 -228 154 -427 375 -485
88 -23 1262 -23 1350 0 313 82 466 427 317 720 -58 115 -207 226 -340 254 -80
17 -1250 14 -1320 -3z m788 -80 c0 -11 -160 -613 -206 -774 l-15 -53 -277 3
-277 3 -65 31 c-145 69 -236 197 -247 347 -17 217 123 401 342 450 11 3 183 5
383 6 301 1 362 -1 362 -13z m277 -258 l83 -83 83 83 c81 81 110 95 135 70 25
-25 11 -54 -70 -135 l-83 -83 84 -84 c71 -71 82 -87 79 -112 -2 -24 -8 -30
-32 -32 -25 -3 -41 8 -112 79 l-84 83 -88 -87 c-49 -48 -93 -87 -96 -87 -23 0
-46 24 -46 48 0 20 20 47 82 109 l83 83 -83 83 c-81 81 -95 110 -70 135 25 25
54 11 135 -70z"/>
<path fill="#ffffff" d="M999 1183 c-24 -27 -91 -103 -148 -170 -57 -68 -106 -123 -110 -123
-3 0 -37 32 -75 70 -38 39 -77 70 -86 70 -20 0 -40 -19 -40 -40 0 -24 182
-200 207 -200 27 0 343 364 343 396 0 22 -17 44 -36 44 -6 0 -31 -21 -55 -47z"/>
</g>
</svg>
