<svg xmlns="http://www.w3.org/2000/svg" aria-labelledby="ccpa-svg-title" xml:space="preserve" style="enable-background:new 0 0 30 14" viewBox="0 0 20 9.333" class="svelte-n33a1d" width="20" height="9.333"><title id="ccpa-svg-title">California Consumer Privacy Act (CCPA) Opt-Out Icon</title><path d="M4.933 8.533h4.533l2.067 -7.733H4.933C2.8 0.8 1.067 2.533 1.067 4.667s1.733 3.867 3.867 3.867z" style="fill-rule:evenodd;clip-rule:evenodd;fill:#fff"/><path d="M15.067 0H4.933c-2.6 0 -4.667 2.067 -4.667 4.667s2.067 4.667 4.667 4.667h10.133c2.6 0 4.667 -2.067 4.667 -4.667s-2.133 -4.667 -4.667 -4.667zm-14 4.667c0 -2.133 1.733 -3.867 3.867 -3.867h6.6l-2.067 7.733H4.933c-2.133 0 -3.867 -1.733 -3.867 -3.867z" style="fill-rule:evenodd;clip-rule:evenodd;fill:#06f"/><path d="M16.4 2.667c0.133 0.133 0.133 0.4 0 0.533L15 4.667l1.467 1.467c0.133 0.133 0.133 0.4 0 0.533 -0.133 0.133 -0.4 0.133 -0.533 0l-1.467 -1.467 -1.467 1.467c-0.133 0.133 -0.4 0.133 -0.533 0 -0.133 -0.133 -0.133 -0.4 0 -0.533L13.867 4.667l-1.467 -1.467c-0.133 -0.133 -0.133 -0.4 0 -0.533 0.133 -0.133 0.4 -0.133 0.533 0l1.467 1.467L15.867 2.667c0.133 -0.133 0.4 -0.133 0.533 0z" style="fill:#fff"/><path d="M8.467 2.733c0.133 0.133 0.2 0.4 0.067 0.533L5.733 6.533c-0.067 0.067 -0.133 0.133 -0.2 0.133 -0.133 0.067 -0.333 0.067 -0.467 -0.067L3.6 5.133c-0.133 -0.133 -0.133 -0.4 0 -0.533 0.133 -0.133 0.4 -0.133 0.533 0L5.333 5.733l2.533 -3c0.133 -0.133 0.4 -0.133 0.6 0z" style="fill:#06f"/></svg>